<svg width="89" height="89" viewBox="0 0 89 89" fill="none" xmlns="http://www.w3.org/2000/svg">
<path d="M32.1547 27.2749L34.3426 31.0645C34.7568 31.7821 34.9596 32.6022 34.9276 33.4301C34.8956 34.258 34.63 35.06 34.1616 35.7435L30.4798 41.1145C29.1616 43.039 26.3291 43.0595 24.9819 41.1554L23.5496 39.1285C22.9057 38.2189 22.5387 37.1426 22.4927 36.0292C22.4258 34.393 21.4705 32.9272 20.0051 32.1964C17.9443 31.1669 16.2775 29.3652 15.462 27.0452C14.8613 25.3342 15.5638 23.438 17.1342 22.5312L17.1348 22.5309C18.0488 22.0032 19.0577 21.6608 20.104 21.5231C21.1504 21.3855 22.2136 21.4553 23.2329 21.7286L25.8334 22.4259C28.5001 23.1401 30.7739 24.8844 32.1547 27.2749Z" fill="url(#paint0_linear_8_5633)"/>
<path d="M30.1608 24.7985L18.7075 31.411C19.1173 31.7088 19.5506 31.9711 20.0029 32.1974C21.4686 32.9281 22.4236 34.394 22.4899 36.0295C22.5362 37.1431 22.9033 38.2196 23.547 39.1294L24.98 41.1563C26.327 43.0596 29.1593 43.0394 30.4771 41.1157L34.1588 35.7438C34.6273 35.0606 34.893 34.2588 34.925 33.4309C34.9571 32.6031 34.7543 31.7831 34.34 31.0657L32.1517 27.2755C31.6139 26.3439 30.9407 25.511 30.1608 24.7985Z" fill="url(#paint1_linear_8_5633)"/>
<path d="M32.7952 29.7655C30.8403 26.3796 26.2608 25.3637 22.5666 27.4965C20.8585 28.4827 19.6401 29.9698 19.0155 31.618C19.3332 31.8307 19.6639 32.0235 20.0056 32.1951C21.4709 32.926 22.4261 34.3918 22.4932 36.0279C22.5392 37.1413 22.9063 38.2176 23.55 39.1272L24.7548 40.8322C26.3669 40.9964 28.0853 40.6594 29.646 39.7584C33.3402 37.6253 34.7501 33.1515 32.7952 29.7655Z" fill="url(#paint2_linear_8_5633)"/>
<path d="M30.7115 35.2149C33.58 33.5587 35.1237 30.8621 34.1594 29.1919C33.1951 27.5217 30.0879 27.5102 27.2194 29.1664C24.3508 30.8226 22.8071 33.5192 23.7714 35.1894C24.7358 36.8596 27.8429 36.8711 30.7115 35.2149Z" fill="url(#paint3_linear_8_5633)"/>
<path d="M48.0307 21.2818C48.9727 21.8773 49.7216 22.7337 50.1862 23.7468L51.2254 26.0007C52.202 28.1187 50.7678 30.5615 48.441 30.7416L41.9498 31.244C40.2643 31.3758 38.6526 30.5256 37.8071 29.0612L35.619 25.2712C34.2388 22.8806 33.8648 20.0396 34.5792 17.3733L35.2768 14.771C35.5498 13.7518 36.0209 12.7964 36.6632 11.9593C37.3055 11.1223 38.1064 10.4199 39.0202 9.89234C40.5907 8.98562 42.5841 9.32541 43.7655 10.701C45.3682 12.5665 46.0938 14.9115 45.955 17.211C45.8566 18.8449 46.6485 20.405 48.0307 21.2818Z" fill="url(#paint4_linear_8_5633)"/>
<path d="M45.9544 17.2125C45.9845 16.7077 45.974 16.2013 45.921 15.6975L34.4678 22.31C34.6968 23.3507 35.0846 24.3499 35.6174 25.2727L37.8057 29.0629C38.6513 30.5275 40.2631 31.3764 41.9477 31.2451L48.4397 30.7432C50.7667 30.5625 52.2003 28.1198 51.2244 26.0022L50.1845 23.7484C49.72 22.735 48.9709 21.8784 48.0285 21.283C46.6474 20.4066 45.8554 18.8465 45.9544 17.2125Z" fill="url(#paint5_linear_8_5633)"/>
<path d="M37.4576 27.0751C35.5027 23.6891 36.9127 19.2152 40.6069 17.0824C42.315 16.0962 44.212 15.7845 45.9517 16.0677C45.9771 16.4493 45.9787 16.832 45.9565 17.2137C45.8568 18.8482 46.6486 20.4083 48.032 21.2844C48.9732 21.881 49.7218 22.737 50.1876 23.7494L51.0618 25.6452C50.398 27.1234 49.2469 28.4431 47.6863 29.3442C43.9919 31.477 39.4125 30.461 37.4576 27.0751Z" fill="url(#paint6_linear_8_5633)"/>
<path d="M43.2215 27.9939C46.09 26.3378 47.6337 23.6412 46.6694 21.971C45.7051 20.3007 42.5979 20.2893 39.7294 21.9455C36.8608 23.6016 35.3171 26.2982 36.2814 27.9685C37.2458 29.6387 40.3529 29.6501 43.2215 27.9939Z" fill="url(#paint7_linear_8_5633)"/>
<path d="M39.3486 26.1182C40.7085 28.3978 39.9625 31.3485 37.6824 32.7086C35.4023 34.0688 32.4516 33.3233 31.0917 31.0436C29.7318 28.764 30.4778 25.8134 32.7579 24.4532C35.038 23.0932 37.9888 23.8385 39.3486 26.1182Z" fill="url(#paint8_linear_8_5633)"/>
<path d="M82.9803 58.6109L37.3458 84.9581C35.8734 85.8081 33.9907 85.3037 33.1407 83.8313L17.0941 56.0379C16.244 54.5655 16.7485 52.6828 18.2209 51.8328L63.8554 25.4857C65.3278 24.6356 67.2104 25.14 68.0605 26.6124L84.107 54.4057C84.9571 55.8782 84.4527 57.7609 82.9803 58.6109Z" fill="url(#paint9_linear_8_5633)"/>
<path d="M63.8554 25.4857L18.2209 51.8328C16.7485 52.6828 16.244 54.5655 17.0941 56.0379L18.7095 58.8358C18.7095 58.8358 42.8261 65.9657 61.4317 71.0519L82.9802 58.6108C84.4526 57.7608 84.9571 55.8781 84.107 54.4057L68.0604 26.6123C67.2104 25.14 65.3278 24.6356 63.8554 25.4857Z" fill="url(#paint10_linear_8_5633)"/>
<path d="M41.0417 38.6571L57.963 28.8876L77.0879 62.0128L60.1666 71.7823L41.0417 38.6571Z" fill="url(#paint11_linear_8_5633)"/>
<path d="M26.9446 73.0995L33.1405 83.8311C33.9906 85.3035 35.8732 85.8079 37.3456 84.9579L82.9801 58.6108C84.4525 57.7607 84.957 55.878 84.1069 54.4057L77.911 43.674L26.9446 73.0995Z" fill="url(#paint12_linear_8_5633)"/>
<path d="M64.4747 70.0753L56.5256 74.6648C55.7293 75.1245 54.7111 74.8517 54.2513 74.0553L36.4523 43.2266C35.9926 42.4303 36.2654 41.4121 37.0617 40.9523L45.0108 36.3629C45.8072 35.9031 46.8254 36.1759 47.2852 36.9723L65.0841 67.801C65.5439 68.5974 65.2711 69.6156 64.4747 70.0753Z" fill="url(#paint13_linear_8_5633)"/>
<path d="M36.4523 43.2266L50.8131 68.1002C54.4156 69.1146 58.0156 70.1168 61.43 71.0502L65.2952 68.8186C65.336 68.4655 65.262 68.1087 65.0842 67.8009L47.2853 36.9722C46.8255 36.1759 45.8073 35.9031 45.011 36.3628L37.0619 40.9523C36.2654 41.4121 35.9926 42.4303 36.4523 43.2266Z" fill="url(#paint14_linear_8_5633)"/>
<path d="M68.6677 30.2197L19.919 58.3647C17.8726 59.5462 15.2558 58.845 14.0743 56.7986L11.0011 51.4758C9.81965 49.4294 10.5208 46.8125 12.5672 45.631L61.3159 17.486C63.3623 16.3045 65.9791 17.0057 67.1606 19.0521L70.2338 24.3749C71.4153 26.4213 70.7141 29.0382 68.6677 30.2197Z" fill="url(#paint15_linear_8_5633)"/>
<path d="M61.3146 17.4837L28.5591 36.3951L26.8296 42.8497L40.4606 46.502L68.6664 30.2174C70.7128 29.0359 71.414 26.4191 70.2325 24.3726L67.1594 19.0498C65.9778 17.0033 63.361 16.3022 61.3146 17.4837Z" fill="url(#paint16_linear_8_5633)"/>
<path d="M36.9412 31.5582L53.8625 21.7887L61.2142 34.5224L44.293 44.2919L36.9412 31.5582Z" fill="url(#paint17_linear_8_5633)"/>
<path d="M66.3347 31.5657L44.2927 44.2917L38.7654 34.7181L51.2339 27.5194L66.3347 31.5657Z" fill="url(#paint18_linear_8_5633)"/>
<path d="M49.3625 42.2493L39.9852 47.6633C39.7921 47.7747 39.5627 47.8049 39.3474 47.7472C39.1321 47.6895 38.9485 47.5487 38.8371 47.3556L31.5589 34.7495C31.4475 34.5564 31.4173 34.327 31.4749 34.1117C31.5326 33.8964 31.6735 33.7128 31.8665 33.6014L41.2439 28.1874C41.4369 28.0759 41.6663 28.0457 41.8816 28.1034C42.0969 28.1611 42.2805 28.302 42.392 28.495L49.6701 41.1012C49.7816 41.2942 49.8117 41.5236 49.754 41.7389C49.6964 41.9542 49.5555 42.1378 49.3625 42.2493Z" fill="url(#paint19_linear_8_5633)"/>
<path d="M42.3922 28.4949L49.6704 41.101C49.7818 41.2941 49.812 41.5235 49.7543 41.7388C49.6966 41.9541 49.5558 42.1377 49.3627 42.2491L41.5059 46.7853L37.9591 45.8349L31.5589 34.7495C31.5462 34.7274 31.5352 34.7059 31.5253 34.6837C31.4366 34.4933 31.4224 34.2765 31.4855 34.0762C31.5487 33.8758 31.6846 33.7064 31.8665 33.6014L41.2441 28.1872C41.624 27.9679 42.1052 28.0792 42.352 28.4329C42.3663 28.4526 42.3795 28.4729 42.3922 28.4949Z" fill="url(#paint20_linear_8_5633)"/>
<path d="M36.5576 30.8959L36.4371 30.8882C32.3274 30.6301 28.6053 33.3049 27.5395 37.2825L26.2973 41.9185C26.1211 42.5761 26.828 43.1184 27.4174 42.7781L27.7581 42.5814C28.8837 41.9315 30.323 42.3171 30.9728 43.4427C31.3132 44.0323 32.1965 43.916 32.3727 43.2584L35.1632 32.8441C35.3766 32.0473 35.8722 31.355 36.5576 30.8959Z" fill="url(#paint21_linear_8_5633)"/>
<path d="M36.5552 30.8926L36.6089 30.7844C38.4402 27.0962 42.6177 25.2102 46.5952 26.276L51.2312 27.5182C51.8888 27.6944 52.0051 28.5777 51.4156 28.918L51.0749 29.1147C49.9493 29.7646 49.5636 31.2038 50.2135 32.3295C50.5539 32.919 50.0116 33.6258 49.354 33.4496L38.9397 30.6591C38.1428 30.4455 37.2955 30.5285 36.5552 30.8926Z" fill="url(#paint22_linear_8_5633)"/>
<defs>
<linearGradient id="paint0_linear_8_5633" x1="20.2546" y1="30.8108" x2="35.588" y2="34.9194" gradientUnits="userSpaceOnUse">
<stop stop-color="#FEE45A"/>
<stop offset="1" stop-color="#FEA613"/>
</linearGradient>
<linearGradient id="paint1_linear_8_5633" x1="26.2977" y1="31.5931" x2="29.9532" y2="35.5512" gradientUnits="userSpaceOnUse">
<stop stop-color="#FEA613" stop-opacity="0"/>
<stop offset="1" stop-color="#E94444"/>
</linearGradient>
<linearGradient id="paint2_linear_8_5633" x1="27.3053" y1="30.4114" x2="31.7009" y2="18.6131" gradientUnits="userSpaceOnUse">
<stop stop-color="#FEA613" stop-opacity="0"/>
<stop offset="1" stop-color="#E94444"/>
</linearGradient>
<linearGradient id="paint3_linear_8_5633" x1="29.1187" y1="32.6356" x2="26.4733" y2="24.9549" gradientUnits="userSpaceOnUse">
<stop stop-color="#FEA613" stop-opacity="0"/>
<stop offset="1" stop-color="#E94444"/>
</linearGradient>
<linearGradient id="paint4_linear_8_5633" x1="39.7265" y1="19.9229" x2="53.518" y2="23.6183" gradientUnits="userSpaceOnUse">
<stop stop-color="#FEE45A"/>
<stop offset="1" stop-color="#FEA613"/>
</linearGradient>
<linearGradient id="paint5_linear_8_5633" x1="42.3221" y1="21.647" x2="43.5664" y2="27.193" gradientUnits="userSpaceOnUse">
<stop stop-color="#FEA613" stop-opacity="0"/>
<stop offset="1" stop-color="#E94444"/>
</linearGradient>
<linearGradient id="paint6_linear_8_5633" x1="40.7619" y1="22.6436" x2="28.3464" y2="20.5512" gradientUnits="userSpaceOnUse">
<stop stop-color="#FEA613" stop-opacity="0"/>
<stop offset="1" stop-color="#E94444"/>
</linearGradient>
<linearGradient id="paint7_linear_8_5633" x1="41.7841" y1="25.3249" x2="36.4553" y2="19.1935" gradientUnits="userSpaceOnUse">
<stop stop-color="#FEA613" stop-opacity="0"/>
<stop offset="1" stop-color="#E94444"/>
</linearGradient>
<linearGradient id="paint8_linear_8_5633" x1="32.7467" y1="27.4513" x2="39.798" y2="30.6657" gradientUnits="userSpaceOnUse">
<stop stop-color="#FEE45A"/>
<stop offset="1" stop-color="#FEA613"/>
</linearGradient>
<linearGradient id="paint9_linear_8_5633" x1="37.6937" y1="46.4059" x2="73.5723" y2="70.9126" gradientUnits="userSpaceOnUse">
<stop stop-color="#DDD7FF"/>
<stop offset="1" stop-color="#5A42DE"/>
</linearGradient>
<linearGradient id="paint10_linear_8_5633" x1="53.9537" y1="61.0296" x2="42.9286" y2="41.9336" gradientUnits="userSpaceOnUse">
<stop stop-color="#5A42DE" stop-opacity="0"/>
<stop offset="1" stop-color="#5A42DE"/>
</linearGradient>
<linearGradient id="paint11_linear_8_5633" x1="63.0473" y1="48.0356" x2="55.1705" y2="52.5833" gradientUnits="userSpaceOnUse">
<stop stop-color="#5A42DE" stop-opacity="0"/>
<stop offset="1" stop-color="#5A42DE"/>
</linearGradient>
<linearGradient id="paint12_linear_8_5633" x1="56.8569" y1="66.0582" x2="59.8237" y2="71.197" gradientUnits="userSpaceOnUse">
<stop stop-color="#5A42DE" stop-opacity="0"/>
<stop offset="1" stop-color="#5A42DE"/>
</linearGradient>
<linearGradient id="paint13_linear_8_5633" x1="45.3518" y1="58.641" x2="56.1846" y2="52.3867" gradientUnits="userSpaceOnUse">
<stop stop-color="#FEE45A"/>
<stop offset="1" stop-color="#FEA613"/>
</linearGradient>
<linearGradient id="paint14_linear_8_5633" x1="49.7347" y1="53.7237" x2="43.399" y2="42.75" gradientUnits="userSpaceOnUse">
<stop stop-color="#FEA613" stop-opacity="0"/>
<stop offset="1" stop-color="#E94444"/>
</linearGradient>
<linearGradient id="paint15_linear_8_5633" x1="37.2364" y1="32.0692" x2="44.807" y2="45.1819" gradientUnits="userSpaceOnUse">
<stop stop-color="#D7CFFF"/>
<stop offset="1" stop-color="#5A42DE"/>
</linearGradient>
<linearGradient id="paint16_linear_8_5633" x1="48.049" y1="31.0804" x2="33.1908" y2="23.6552" gradientUnits="userSpaceOnUse">
<stop stop-color="#5A42DE" stop-opacity="0.258824"/>
<stop offset="1" stop-color="#5A42DE"/>
</linearGradient>
<linearGradient id="paint17_linear_8_5633" x1="53.0602" y1="30.741" x2="45.1834" y2="35.2887" gradientUnits="userSpaceOnUse">
<stop stop-color="#5A42DE" stop-opacity="0"/>
<stop offset="1" stop-color="#5A42DE"/>
</linearGradient>
<linearGradient id="paint18_linear_8_5633" x1="56.7663" y1="39.2414" x2="47.2494" y2="30.641" gradientUnits="userSpaceOnUse">
<stop stop-color="#5A42DE" stop-opacity="0"/>
<stop offset="1" stop-color="#5A42DE"/>
</linearGradient>
<linearGradient id="paint19_linear_8_5633" x1="36.6598" y1="37.4919" x2="46.0642" y2="38.5225" gradientUnits="userSpaceOnUse">
<stop stop-color="#FEE45A"/>
<stop offset="1" stop-color="#FEA613"/>
</linearGradient>
<linearGradient id="paint20_linear_8_5633" x1="45.3476" y1="40.7022" x2="35.0644" y2="33.572" gradientUnits="userSpaceOnUse">
<stop stop-color="#FEA613" stop-opacity="0"/>
<stop offset="1" stop-color="#E94444"/>
</linearGradient>
<linearGradient id="paint21_linear_8_5633" x1="29.0597" y1="36.169" x2="33.4055" y2="37.3335" gradientUnits="userSpaceOnUse">
<stop stop-color="#FEE45A"/>
<stop offset="1" stop-color="#FEA613"/>
</linearGradient>
<linearGradient id="paint22_linear_8_5633" x1="44.8709" y1="27.0358" x2="43.7064" y2="31.3815" gradientUnits="userSpaceOnUse">
<stop stop-color="#FEE45A"/>
<stop offset="1" stop-color="#FEA613"/>
</linearGradient>
</defs>
</svg>
